<svg width="40" height="39" viewBox="0 0 40 39" fill="none" xmlns="http://www.w3.org/2000/svg">
<path d="M16.75 30.8755H10.575C8.75484 30.8755 7.84474 30.8755 7.14953 30.5212C6.538 30.2097 6.04081 29.7125 5.72923 29.101C5.375 28.4058 5.375 27.4957 5.375 25.6755V13.3255C5.375 11.5053 5.375 10.5952 5.72923 9.90002C6.04081 9.28848 6.538 8.7913 7.14953 8.47972C7.84474 8.12549 8.75484 8.12549 10.575 8.12549H29.425C31.2452 8.12549 32.1553 8.12549 32.8505 8.47972C33.462 8.7913 33.9592 9.28848 34.2707 9.90002C34.625 10.5952 34.625 11.5053 34.625 13.3255V16.2505M33.9859 13.4267L25.7686 18.9049C23.6837 20.2948 22.6413 20.9898 21.5145 21.2599C20.5187 21.4984 19.4807 21.4984 18.485 21.2599C17.3582 20.9898 16.3158 20.2948 14.2308 18.9049L5.61462 13.1608M23.25 34.1255L26.5406 33.4674C26.8274 33.41 26.9709 33.3812 27.1047 33.3288C27.2235 33.2823 27.3364 33.2218 27.4409 33.1489C27.5589 33.0666 27.6622 32.9633 27.8692 32.7563L34.625 26.0005C35.5225 25.103 35.5225 23.648 34.625 22.7505C33.7275 21.853 32.2725 21.853 31.375 22.7505L24.6192 29.5063C24.4122 29.7133 24.3088 29.8166 24.2266 29.9346C24.1537 30.0391 24.0932 30.152 24.0467 30.2708C23.9943 30.4046 23.9655 30.5481 23.9081 30.8349L23.25 34.1255Z" stroke="#E3DD3C" stroke-width="2" stroke-linecap="round" stroke-linejoin="round"/>
</svg>
