<svg width="40" height="39" viewBox="0 0 40 39" fill="none" xmlns="http://www.w3.org/2000/svg">
<path d="M7.01065 12.8918C6.89309 15.9925 7.67784 21.2582 12.96 26.5405C14.2344 27.8148 15.5077 28.8273 16.75 29.6286M9.49894 8.02349C11.7625 5.75994 15.3739 6.06408 16.8111 8.63926L17.8657 10.529C18.8175 12.2344 18.4355 14.4716 16.9364 15.9707C16.9364 15.9707 15.1183 17.789 18.4148 21.0857C21.7103 24.3812 23.5298 22.5641 23.5298 22.5641C25.0289 21.065 27.266 20.683 28.9715 21.6348L30.8612 22.6894C33.4365 24.1265 33.7405 27.7379 31.4771 30.0016C30.1169 31.3617 28.4507 32.42 26.6087 32.4898C25.286 32.54 23.569 32.4259 21.625 31.8685" stroke="#E3DD3C" stroke-width="2" stroke-linecap="round"/>
</svg>
